<svg xmlns="http://www.w3.org/2000/svg" version="1.1" xmlns:xlink="http://www.w3.org/1999/xlink" xmlns:svgjs="http://svgjs.dev/svgjs" width="750" height="515" viewBox="0 0 312 312" class="svg-animations " style="background: rgb(255, 255, 255);"><svg viewBox="0 0 130.96226501464844 135" width="75" height="75" x="118.5" y="99.9601936340332" style="fill: rgb(0, 0, 0);"><svg width="132" height="130" viewBox="0 0 132 130" xmlns="http://www.w3.org/2000/svg">
<path d="M19.232 93.7508C18.1069 94.76 17.0143 95.8056 15.9544 96.8847C15.6448 97.198 15.3467 97.522 15.042 97.8421C14.2647 98.6625 13.5047 99.502 12.7619 100.361C12.4399 100.735 12.1092 101.1 11.7939 101.477C10.9198 102.532 10.0765 103.618 9.25894 104.725C8.88708 105.228 8.52862 105.743 8.16827 106.256C7.59322 107.076 7.03735 107.913 6.49203 108.761C6.20451 109.21 5.90549 109.65 5.6266 110.107C5.61223 110.133 5.59785 110.154 5.58252 110.18C5.57581 110.188 5.57581 110.201 5.57197 110.209C3.80083 113.125 2.20599 116.177 0.83374 119.376L4.77949 121.068C5.25581 119.956 5.79539 118.883 6.3254 117.805L7.86076 127.017C8.0304 128.05 8.92554 128.81 9.97501 128.81H18.5623C18.8345 128.81 19.1057 128.758 19.3607 128.658L29.5599 124.577L44.0185 126.642C45.0038 126.788 45.9488 126.234 46.3158 125.316L50.3479 115.232L66.9283 104.87C67.465 104.536 67.8254 103.979 67.9155 103.352L70.0623 88.3241C70.2195 87.2354 69.5256 86.2051 68.4589 85.9367L60.204 83.8733L55.135 80.6741C55.4868 80.608 55.8395 80.5371 56.1931 80.4767C57.3269 80.2812 58.4626 80.1182 59.604 79.9783C60.156 79.9122 60.71 79.847 61.2659 79.7934C62.393 79.6841 63.5239 79.6065 64.6557 79.5528C65.2422 79.525 65.8297 79.501 66.4201 79.4886C67.5922 79.4627 68.7643 79.4675 69.9384 79.4991C70.3716 79.5116 70.8058 79.5231 71.239 79.5442C71.2687 79.5461 71.3013 79.5461 71.331 79.548C72.529 79.6055 73.727 79.7071 74.9232 79.8269C75.3851 79.8738 75.8461 79.9103 76.3062 79.9687C77.4936 80.1125 78.6744 80.3061 79.8552 80.5121C80.321 80.5936 80.7934 80.6578 81.2573 80.7508C82.4812 80.9913 83.6936 81.2875 84.9069 81.5942C86.4614 81.991 87.9988 82.4376 89.5158 82.9398C90.181 83.1612 90.8423 83.3931 91.5017 83.6337C92.3757 83.9538 93.245 84.2815 94.1056 84.6361C94.7669 84.9083 95.4177 85.2026 96.0675 85.4968C96.3061 85.6041 96.5419 85.7182 96.7805 85.8274L88.8181 88.1027C88.2038 88.279 87.6996 88.7189 87.4418 89.3026C87.184 89.8863 87.2013 90.5562 87.4869 91.1274L88.9427 94.0361L81.4499 101.529C80.6103 102.368 80.6103 103.726 81.4499 104.564L90.0372 113.151C90.4924 113.607 91.1173 113.841 91.7671 113.77C92.4073 113.707 92.9843 113.359 93.3408 112.825L101.29 100.901H106.582V108.241L92.6362 116.21C92.4713 116.305 92.318 116.421 92.1828 116.556L87.8892 120.85C87.1656 121.574 87.0515 122.707 87.6208 123.56L91.9145 130L95.4866 127.619L92.1694 122.643L95.016 119.797L109.794 111.351C110.463 110.97 110.876 110.259 110.876 109.488V98.754C110.876 97.5694 109.913 96.6071 108.729 96.6071H100.141C99.4245 96.6071 98.7546 96.9656 98.355 97.5627L91.2206 108.264L86.002 103.048L93.0711 95.9784C93.7238 95.3258 93.8867 94.3271 93.4745 93.5009L92.4845 91.5218L102.353 88.7032C102.437 88.753 102.525 88.7933 102.609 88.8431C102.938 89.0367 103.249 89.2514 103.575 89.4488C104.619 90.0842 105.658 90.7302 106.671 91.4222C107.596 92.0557 108.498 92.717 109.389 93.3907C109.628 93.5709 109.874 93.7338 110.111 93.9169C117.403 99.5907 123.504 106.689 128.028 114.825L128.036 114.821C128.038 114.825 128.04 114.827 128.043 114.831L131.796 112.747C129.319 108.285 126.404 104.157 123.138 100.385C123.078 100.316 123.012 100.252 122.951 100.181C121.93 99.0108 120.879 97.8732 119.788 96.7758C119.556 96.5419 119.309 96.3253 119.075 96.0934C118.142 95.1791 117.199 94.2753 116.22 93.4137C115.848 93.0878 115.46 92.7802 115.083 92.4601C114.215 91.7259 113.346 90.9956 112.446 90.3046C111.956 89.9289 111.447 89.5772 110.95 89.212C110.917 89.1881 110.888 89.167 110.855 89.143L114.981 79.2379L121.4 65.3304L127.824 52.484C128.085 51.9598 128.122 51.3502 127.924 50.7992C127.727 50.2471 127.31 49.8005 126.776 49.5628L126.194 49.305L129.971 41.7499C130.455 40.7819 130.142 39.603 129.24 39.0041L116.359 30.4168C115.846 30.0737 115.208 29.9683 114.616 30.1293C114.022 30.2865 113.523 30.6938 113.246 31.2439L108.212 41.3149L107.452 40.9775C106.397 40.5098 105.172 40.9517 104.659 41.9781L91.7779 67.74C91.7673 67.7611 91.7692 67.7832 91.7606 67.8042C91.752 67.8234 91.7328 67.8368 91.7261 67.8541L88.0956 76.3273L85.0776 59.7305C84.8916 58.7069 84.0032 57.9641 82.9662 57.9641H80.2914L76.4423 44.4929C76.1797 43.5718 75.3363 42.9364 74.3788 42.9364H74.0501L70.0546 18.9668C70.044 18.8978 70.0047 18.8422 69.9856 18.776C71.3177 18.0457 72.232 16.6503 72.232 15.0278V10.7341C72.232 8.36593 70.3066 6.44048 67.9384 6.44048V0H63.6447V6.44048C61.2765 6.44048 59.3511 8.36593 59.3511 10.7341V15.0278C59.3511 16.6504 60.2654 18.0459 61.5947 18.778C61.5774 18.8441 61.5391 18.9007 61.5257 18.9687L57.5331 42.9366H57.2044C56.2469 42.9366 55.4035 43.5721 55.1409 44.4931L51.2918 57.9644H48.617C47.58 57.9644 46.6916 58.7071 46.5047 59.7269L43.411 76.7386L26.9945 35.6979C26.984 35.6701 26.9581 35.6509 26.9447 35.6231C26.8546 35.4209 26.7319 35.2388 26.5843 35.0711C26.5498 35.0328 26.5201 34.9915 26.4837 34.9551C26.4626 34.936 26.4492 34.9101 26.4281 34.8909L7.10666 17.7163C6.49902 17.1777 5.64029 17.0272 4.8822 17.3281C4.12698 17.631 3.60657 18.3326 3.54042 19.1443L1.39359 44.9062C1.39168 44.934 1.39743 44.9618 1.39743 44.9896C1.39551 45.0414 1.40414 45.0931 1.40414 45.1439C1.41084 45.3672 1.44918 45.5858 1.52202 45.7918C1.53256 45.8215 1.52585 45.8522 1.53927 45.88L20.3116 92.8133C20.1506 92.9532 19.9896 93.0903 19.8286 93.2321C19.6311 93.4056 19.4289 93.5752 19.2315 93.7516L19.232 93.7508ZM54.5848 76.3634C57.2194 72.9324 61.33 70.846 65.7915 70.846C69.9156 70.846 73.7519 72.643 76.3904 75.6399C76.1796 75.6159 75.9716 75.6121 75.7636 75.59C75.154 75.5258 74.5464 75.4635 73.935 75.4137C73.1836 75.3514 72.4284 75.3044 71.6722 75.2652C71.2754 75.2441 70.8757 75.2134 70.4809 75.2009C70.0601 75.1856 69.6394 75.1904 69.2187 75.1837C68.7902 75.176 68.3676 75.1396 67.9382 75.1396C67.528 75.1396 67.1245 75.1779 66.7143 75.1846C66.5255 75.1885 66.3348 75.1808 66.145 75.1846C65.3975 75.2019 64.6547 75.2469 63.91 75.2882C63.1548 75.3294 62.3986 75.3696 61.6453 75.4338C61.306 75.4635 60.9668 75.4894 60.6275 75.5239C59.9278 75.5948 59.2301 75.6916 58.5324 75.7817C57.9094 75.8613 57.2855 75.9274 56.6645 76.0242C56.3271 76.076 55.9926 76.1469 55.6553 76.2044C55.3016 76.2648 54.9413 76.2963 54.5848 76.3634ZM58.8296 87.9563L65.5385 89.6325L63.8057 101.755L47.4793 111.96C47.093 112.202 46.7921 112.56 46.6224 112.983L42.9557 122.152L29.5985 120.244C29.2228 120.19 28.8451 120.235 28.4972 120.375L18.1493 124.517H11.7952L9.66558 111.739C9.68954 111.703 9.71255 111.668 9.7365 111.632C10.3978 110.578 11.0936 109.549 11.8057 108.538C12.145 108.057 12.491 107.583 12.8408 107.113C13.5107 106.211 14.1998 105.327 14.91 104.462C15.2358 104.065 15.5713 103.674 15.9058 103.283C16.6505 102.418 17.4172 101.57 18.2031 100.745C18.4887 100.444 18.7743 100.142 19.0656 99.8482C20.0614 98.839 21.084 97.8557 22.1374 96.9116C22.2898 96.7765 22.447 96.6452 22.5994 96.5119C23.299 95.8976 24.0293 95.3187 24.7529 94.7322C25.8417 93.8524 26.9553 93.0128 28.0909 92.2028C28.4599 91.9383 28.8251 91.668 29.2008 91.4131C30.3882 90.6013 31.6054 89.8394 32.8378 89.1053C33.1637 88.9117 33.48 88.7037 33.8078 88.5149C35.3259 87.6456 36.8737 86.8319 38.4579 86.0806C38.5758 86.025 38.6965 85.9694 38.8163 85.9128C40.4073 85.1681 42.028 84.4829 43.6792 83.8609C44.5485 83.5322 45.4379 83.2465 46.3216 82.9552C47.3002 82.6312 48.2883 82.3351 49.2803 82.0552L58.2089 87.6907C58.3978 87.8096 58.6086 87.9006 58.83 87.9562L58.8296 87.9563ZM91.5914 79.0662L94.7753 71.6387L110.267 79.3844L107.246 86.6368C106.784 86.3407 106.308 86.079 105.842 85.7953C105.372 85.5097 104.902 85.2222 104.426 84.9452C104.237 84.836 104.054 84.7181 103.865 84.6107C103.811 84.581 103.762 84.5446 103.708 84.5139C103.706 84.5139 103.704 84.5139 103.701 84.512C102.958 84.0932 102.2 83.7108 101.445 83.3207C101.119 83.1511 100.797 82.9747 100.467 82.8099C99.211 82.1831 97.9372 81.5946 96.6491 81.0407C96.5418 80.9937 96.4344 80.942 96.3271 80.8969C94.7697 80.2366 93.1958 79.6154 91.5914 79.0662ZM122.265 47.5606L119.168 46.1843L122.442 39.6347L125.282 41.5285L122.265 47.5606ZM116.001 35.3382L118.842 37.232L115.239 44.4362L112.142 43.06L116.001 35.3382ZM107.187 46.5304C107.298 46.6483 107.398 46.7776 107.538 46.8716L120.419 55.4589C120.707 55.6525 121.038 55.7464 121.375 55.7847L118.461 61.6108L103.069 54.7687L107.187 46.5304ZM101.143 58.6139L116.6 65.4838L112 75.4493L96.5789 67.7398L101.143 58.6139ZM63.6434 10.736H67.937L67.939 15.0297H63.6433L63.6434 10.736ZM65.4615 21.4701H66.118L69.6967 42.9384H61.8847L65.4615 21.4701ZM58.8218 47.2321H72.759L75.8269 57.9662H55.7559L58.8218 47.2321ZM50.406 62.2599H81.1756L83.8352 76.8929C83.6166 76.8431 83.3933 76.8133 83.1739 76.7683C82.8193 76.6936 82.4656 76.6159 82.1091 76.545C78.9598 70.4544 72.7043 66.5535 65.7912 66.5535C58.4297 66.5535 51.8005 70.9181 48.8811 77.6719C48.5801 77.7534 48.2869 77.8502 47.9879 77.9335C47.8374 77.9767 47.6869 78.0064 47.5374 78.0495L50.406 62.2599ZM39.9871 80.7054C39.1322 81.0572 38.2888 81.429 37.4521 81.8133C37.1665 81.9446 36.879 82.0711 36.5934 82.2063C35.1596 82.8867 33.7488 83.6104 32.366 84.379C32.2155 84.4624 32.0718 84.5506 31.9213 84.6349C31.8868 84.6541 31.8523 84.6761 31.8159 84.6953C31.7584 84.7279 31.7018 84.7614 31.6462 84.794C30.4204 85.4936 29.2186 86.2307 28.0378 86.9983C27.8893 87.0951 27.7369 87.1891 27.5893 87.2859C26.2974 88.1427 25.0323 89.0359 23.7979 89.9732L14.9105 67.7497L32.3918 60.7572L40.314 80.5598C40.2019 80.6048 40.0973 80.6604 39.9871 80.7054ZM6.3224 46.2826L23.8037 39.29L30.7962 56.7694L13.3149 63.7639L6.3224 46.2826ZM7.46193 23.7811L20.9784 35.7948L5.95915 41.802L7.46193 23.7811Z"></path>
<path d="M18.5622 45.0828C15.0112 45.0828 12.1217 47.9723 12.1217 51.5233C12.1217 55.0743 15.0112 57.9638 18.5622 57.9638C22.1132 57.9638 25.0027 55.0743 25.0027 51.5233C25.0027 47.9723 22.1132 45.0828 18.5622 45.0828ZM18.5622 53.6701C17.3795 53.6701 16.4154 52.706 16.4154 51.5233C16.4154 50.3406 17.3795 49.3765 18.5622 49.3765C19.7449 49.3765 20.709 50.3406 20.709 51.5233C20.709 52.706 19.7449 53.6701 18.5622 53.6701Z"></path>
</svg></svg><text fill="#000000" font-family="Helvetica" font-size="26px" x="63.172080993652344" y="198.38543701171875"><tspan dy="0" x="63.172080993652344">VoyageExpress</tspan></text><text fill="#000200" font-family="Impact" font-size="16px" x="156" y="212.0398063659668"><tspan dy="0" x="156"></tspan></text></svg>